<?xml version="1.0" standalone="no"?>
<!DOCTYPE svg PUBLIC "-//W3C//DTD SVG 20010904//EN"
 "http://www.w3.org/TR/2001/REC-SVG-20010904/DTD/svg10.dtd">
<svg version="1.0" xmlns="http://www.w3.org/2000/svg"
 width="500.000000pt" height="500.000000pt" viewBox="0 0 500.000000 500.000000"
 preserveAspectRatio="xMidYMid meet">
<metadata>
Created by potrace 1.14, written by Peter Selinger 2001-2017
</metadata>
<g transform="translate(0.000000,500.000000) scale(0.100000,-0.100000)"
fill="#000000" stroke="none">
<path d="M0 2500 l0 -2500 2500 0 2500 0 0 2500 0 2500 -2500 0 -2500 0 0
-2500z m3725 1813 c107 -39 190 -115 240 -218 38 -78 47 -210 20 -283 -59
-158 -122 -247 -226 -318 -134 -92 -213 -123 -344 -131 -150 -9 -266 30 -361
123 -115 112 -154 274 -100 422 34 96 57 137 108 199 86 103 209 179 363 223
50 15 244 4 300 -17z m-1168 -185 c101 -49 164 -133 198 -263 28 -109 13 -214
-46 -330 -69 -134 -220 -235 -352 -235 -94 0 -227 73 -278 152 -40 62 -78 169
-85 238 -11 110 76 308 169 382 85 68 138 87 241 87 80 1 95 -2 153 -31z
m-820 -139 c53 -26 109 -90 139 -161 18 -41 23 -72 24 -140 0 -77 -4 -95 -36
-172 -41 -97 -101 -169 -174 -207 -34 -18 -62 -23 -116 -24 -61 0 -77 4 -120
30 -69 43 -126 131 -136 210 -11 82 -11 82 0 152 37 230 255 391 419 312z
m-91 -855 c152 -93 188 -336 79 -523 -53 -90 -105 -130 -214 -166 -53 -17 -53
-17 -120 9 -98 38 -140 88 -181 213 -25 79 -25 110 1 197 32 105 59 155 111
209 100 101 222 124 324 61z m1729 6 c89 -14 186 -65 270 -142 52 -48 74 -78
108 -147 42 -86 42 -86 42 -201 0 -111 -1 -118 -34 -185 -38 -78 -123 -174
-189 -212 -208 -122 -487 -88 -657 82 -65 65 -110 141 -131 220 -17 62 -18
196 -2 244 50 155 177 287 313 326 48 14 193 34 206 29 3 -2 37 -8 74 -14z
m-1867 -898 c102 -68 153 -202 131 -345 -14 -89 -28 -125 -82 -204 -31 -46
-58 -71 -103 -97 -56 -33 -67 -36 -140 -36 -86 0 -100 5 -167 69 -63 59 -89
128 -90 241 -1 77 3 106 21 154 34 87 93 165 159 208 55 36 61 38 143 38 77 0
89 -3 128 -28z m690 -61 c95 -26 143 -53 202 -112 57 -57 90 -116 116 -208 34
-124 -11 -274 -118 -383 -37 -38 -79 -69 -122 -89 -59 -28 -75 -31 -168 -31
-86 -1 -112 3 -158 22 -115 49 -192 129 -241 251 -28 71 -30 205 -3 276 51
137 170 243 312 278 78 18 102 18 180 -4z m1065 -240 c147 -48 259 -156 320
-309 26 -64 25 -258 -1 -333 -69 -196 -248 -332 -451 -343 -225 -12 -426 117
-508 327 -25 64 -28 85 -28 182 0 101 3 116 32 182 63 148 164 244 311 297 59
22 256 20 325 -3z m-1916 -526 c96 -48 153 -160 153 -300 0 -74 -5 -97 -31
-160 -50 -120 -128 -201 -225 -230 -62 -19 -74 -19 -139 1 -65 18 -123 71
-160 145 -25 49 -26 58 -23 178 3 114 6 131 32 183 86 174 254 252 393 183z"/>
</g>
</svg>
